SplineFontDB: 3.2
FontName: Comic-Sans-UT
FullName: Comic Sans UT Regular
FamilyName: Comic Sans UT
Weight: Book
Copyright: Copyright Fraxtil 2015
Version: 1.0
ItalicAngle: 0
UnderlinePosition: 77
UnderlineWidth: 51
Ascent: 819
Descent: 205
InvalidEm: 0
sfntRevision: 0x00010000
LayerCount: 2
Layer: 0 1 "Back" 1
Layer: 1 1 "Fore" 0
XUID: [1021 164 -1838385510 13475501]
StyleMap: 0x0040
FSType: 4
OS2Version: 2
OS2_WeightWidthSlopeOnly: 0
OS2_UseTypoMetrics: 0
CreationTime: 1449709122
ModificationTime: 1589852744
PfmFamily: 81
TTFWeight: 400
TTFWidth: 5
LineGap: 0
VLineGap: 0
Panose: 0 0 4 0 0 0 0 0 0 0
OS2TypoAscent: 640
OS2TypoAOffset: 0
OS2TypoDescent: -256
OS2TypoDOffset: 0
OS2TypoLinegap: 0
OS2WinAscent: 768
OS2WinAOffset: 0
OS2WinDescent: 256
OS2WinDOffset: 0
HheadAscent: 768
HheadAOffset: 0
HheadDescent: -256
HheadDOffset: 0
OS2SubXSize: 512
OS2SubYSize: 512
OS2SubXOff: 0
OS2SubYOff: -128
OS2SupXSize: 512
OS2SupYSize: 512
OS2SupXOff: 0
OS2SupYOff: 512
OS2StrikeYSize: 51
OS2StrikeYPos: 204
OS2CapHeight: 640
OS2XHeight: 448
OS2Vendor: 'FSTR'
OS2CodePages: 00000001.00000000
OS2UnicodeRanges: 80000001.00000000.00000000.00000000
DEI: 91125
ShortTable: maxp 16
  1
  0
  102
  56
  5
  0
  0
  2
  0
  0
  0
  0
  0
  0
  0
  0
EndShort
LangName: 1033 "" "" "Regular" "FontStruct Comic Sans UT" "" "Version 1.0" "" "FontStruct is a trademark of FSI FontShop International GmbH" "http://fontstruct.com" "Fraxtil" "+IBoAxAD6-Comic Sans UT+IBoAxAD5 was built with FontStruct+AAoA" "http://www.fontshop.com" "http://fontstruct.com/fontstructions/show/1220256" "Creative Commons Attribution Non-commercial" "http://creativecommons.org/licenses/by-nc/3.0/" "" "" "" "" "Five big quacking zephyrs jolt my wax bed"
Encoding: UnicodeBmp
UnicodeInterp: none
NameList: AGL For New Fonts
DisplaySize: -48
AntiAlias: 1
FitToEm: 0
WinInfo: 0 29 12
BeginChars: 65539 102

StartChar: exclam
Encoding: 33 33 4
Width: 320
Flags: W
LayerCount: 2
Fore
SplineSet
0 0 m 1,0,-1
 0 128 l 1,1,-1
 128 128 l 1,2,-1
 128 0 l 1,3,-1
 0 0 l 1,0,-1
0 192 m 1,4,-1
 0 640 l 1,5,-1
 128 640 l 1,6,-1
 128 192 l 1,7,-1
 0 192 l 1,4,-1
EndSplineSet
EndChar

StartChar: quotedbl
Encoding: 34 34 5
Width: 640
Flags: W
LayerCount: 2
Fore
SplineSet
128 384 m 1,0,-1
 128 640 l 1,1,-1
 256 640 l 1,2,-1
 256 384 l 1,3,-1
 128 384 l 1,0,-1
320 384 m 1,4,-1
 320 640 l 1,5,-1
 448 640 l 1,6,-1
 448 384 l 1,7,-1
 320 384 l 1,4,-1
EndSplineSet
EndChar

StartChar: numbersign
Encoding: 35 35 6
Width: 704
Flags: W
LayerCount: 2
Fore
SplineSet
320 256 m 1,0,-1
 320 384 l 1,1,-1
 256 384 l 1,2,-1
 256 256 l 1,3,-1
 320 256 l 1,0,-1
64 0 m 1,4,-1
 64 128 l 1,5,-1
 0 128 l 1,6,-1
 0 256 l 1,7,-1
 128 256 l 1,8,-1
 128 384 l 1,9,-1
 64 384 l 1,10,-1
 64 512 l 1,11,-1
 192 512 l 1,12,-1
 192 640 l 1,13,-1
 320 640 l 1,14,-1
 320 512 l 1,15,-1
 384 512 l 1,16,-1
 384 640 l 1,17,-1
 512 640 l 1,18,-1
 512 512 l 1,19,-1
 576 512 l 1,20,-1
 576 384 l 1,21,-1
 448 384 l 1,22,-1
 448 256 l 1,23,-1
 576 256 l 1,24,-1
 576 128 l 1,25,-1
 384 128 l 1,26,-1
 384 0 l 1,27,-1
 256 0 l 1,28,-1
 256 128 l 1,29,-1
 192 128 l 1,30,-1
 192 0 l 1,31,-1
 64 0 l 1,4,-1
EndSplineSet
EndChar

StartChar: dollar
Encoding: 36 36 7
Width: 640
Flags: W
LayerCount: 2
Fore
SplineSet
384 128 m 1,0,-1
 384 256 l 1,1,-1
 320 256 l 1,2,-1
 320 128 l 1,3,-1
 384 128 l 1,0,-1
192 384 m 1,4,-1
 192 512 l 1,5,-1
 128 512 l 1,6,-1
 128 384 l 1,7,-1
 192 384 l 1,4,-1
192 -128 m 1,8,-1
 192 0 l 1,9,-1
 0 0 l 1,10,-1
 0 128 l 1,11,-1
 192 128 l 1,12,-1
 192 256 l 1,13,-1
 64 256 l 1,14,-1
 64 320 l 1,15,-1
 0 320 l 1,16,-1
 0 512 l 1,17,-1
 64 512 l 1,18,-1
 64 576 l 1,19,-1
 128 576 l 1,20,-1
 128 640 l 1,21,-1
 192 640 l 1,22,-1
 192 768 l 1,23,-1
 320 768 l 1,24,-1
 320 640 l 1,25,-1
 448 640 l 1,26,-1
 448 512 l 1,27,-1
 320 512 l 1,28,-1
 320 384 l 1,29,-1
 448 384 l 1,30,-1
 448 320 l 1,31,-1
 512 320 l 1,32,-1
 512 64 l 1,33,-1
 384 64 l 1,34,-1
 384 0 l 1,35,-1
 320 0 l 1,36,-1
 320 -128 l 1,37,-1
 192 -128 l 1,8,-1
EndSplineSet
EndChar

StartChar: percent
Encoding: 37 37 8
Width: 768
Flags: W
LayerCount: 2
Fore
SplineSet
576 128 m 1,0,-1
 576 192 l 1,1,-1
 512 192 l 1,2,-1
 512 128 l 1,3,-1
 576 128 l 1,0,-1
448 0 m 1,4,-1
 448 64 l 1,5,-1
 384 64 l 1,6,-1
 384 256 l 1,7,-1
 448 256 l 1,8,-1
 448 320 l 1,9,-1
 640 320 l 1,10,-1
 640 256 l 1,11,-1
 704 256 l 1,12,-1
 704 64 l 1,13,-1
 640 64 l 1,14,-1
 640 0 l 1,15,-1
 448 0 l 1,4,-1
192 448 m 1,16,-1
 192 512 l 1,17,-1
 128 512 l 1,18,-1
 128 448 l 1,19,-1
 192 448 l 1,16,-1
128 0 m 1,20,-1
 128 128 l 1,21,-1
 192 128 l 1,22,-1
 192 256 l 1,23,-1
 256 256 l 1,24,-1
 256 320 l 1,25,-1
 64 320 l 1,26,-1
 64 384 l 1,27,-1
 0 384 l 1,28,-1
 0 576 l 1,29,-1
 64 576 l 1,30,-1
 64 640 l 1,31,-1
 256 640 l 1,32,-1
 256 576 l 1,33,-1
 320 576 l 1,34,-1
 320 512 l 1,35,-1
 384 512 l 1,36,-1
 384 640 l 1,37,-1
 512 640 l 1,38,-1
 512 512 l 1,39,-1
 448 512 l 1,40,-1
 448 384 l 1,41,-1
 384 384 l 1,42,-1
 384 256 l 1,43,-1
 320 256 l 1,44,-1
 320 128 l 1,45,-1
 256 128 l 1,46,-1
 256 0 l 1,47,-1
 128 0 l 1,20,-1
EndSplineSet
EndChar

StartChar: ampersand
Encoding: 38 38 9
Width: 704
Flags: W
LayerCount: 2
Fore
SplineSet
320 128 m 1,0,-1
 320 192 l 1,1,-1
 256 192 l 1,2,-1
 256 320 l 1,3,-1
 192 320 l 1,4,-1
 192 256 l 1,5,-1
 128 256 l 1,6,-1
 128 128 l 1,7,-1
 320 128 l 1,0,-1
320 448 m 1,8,-1
 320 512 l 1,9,-1
 256 512 l 1,10,-1
 256 448 l 1,11,-1
 320 448 l 1,8,-1
64 0 m 1,12,-1
 64 64 l 1,13,-1
 0 64 l 1,14,-1
 0 320 l 1,15,-1
 64 320 l 1,16,-1
 64 384 l 1,17,-1
 128 384 l 1,18,-1
 128 576 l 1,19,-1
 192 576 l 1,20,-1
 192 640 l 1,21,-1
 384 640 l 1,22,-1
 384 576 l 1,23,-1
 448 576 l 1,24,-1
 448 448 l 1,25,-1
 384 448 l 1,26,-1
 384 384 l 1,27,-1
 320 384 l 1,28,-1
 320 320 l 1,29,-1
 384 320 l 1,30,-1
 384 256 l 1,31,-1
 448 256 l 1,32,-1
 448 320 l 1,33,-1
 576 320 l 1,34,-1
 576 192 l 1,35,-1
 512 192 l 1,36,-1
 512 64 l 1,37,-1
 576 64 l 1,38,-1
 576 0 l 1,39,-1
 448 0 l 1,40,-1
 448 64 l 1,41,-1
 384 64 l 1,42,-1
 384 0 l 1,43,-1
 64 0 l 1,12,-1
EndSplineSet
EndChar

StartChar: quotesingle
Encoding: 39 39 10
Width: 448
Flags: W
LayerCount: 2
Fore
SplineSet
128 384 m 1,0,-1
 128 640 l 1,1,-1
 256 640 l 1,2,-1
 256 384 l 1,3,-1
 128 384 l 1,0,-1
EndSplineSet
EndChar

StartChar: parenleft
Encoding: 40 40 11
Width: 384
Flags: W
LayerCount: 2
Fore
SplineSet
128 -256 m 1,0,-1
 128 -192 l 1,1,-1
 64 -192 l 1,2,-1
 64 -64 l 1,3,-1
 0 -64 l 1,4,-1
 0 384 l 1,5,-1
 64 384 l 1,6,-1
 64 512 l 1,7,-1
 128 512 l 1,8,-1
 128 640 l 1,9,-1
 256 640 l 1,10,-1
 256 512 l 1,11,-1
 192 512 l 1,12,-1
 192 384 l 1,13,-1
 128 384 l 1,14,-1
 128 -64 l 1,15,-1
 192 -64 l 1,16,-1
 192 -128 l 1,17,-1
 256 -128 l 1,18,-1
 256 -256 l 1,19,-1
 128 -256 l 1,0,-1
EndSplineSet
EndChar

StartChar: parenright
Encoding: 41 41 12
Width: 384
Flags: W
LayerCount: 2
Fore
SplineSet
0 -256 m 1,0,-1
 0 -128 l 1,1,-1
 64 -128 l 1,2,-1
 64 -64 l 1,3,-1
 128 -64 l 1,4,-1
 128 384 l 1,5,-1
 64 384 l 1,6,-1
 64 512 l 1,7,-1
 0 512 l 1,8,-1
 0 640 l 1,9,-1
 128 640 l 1,10,-1
 128 512 l 1,11,-1
 192 512 l 1,12,-1
 192 384 l 1,13,-1
 256 384 l 1,14,-1
 256 -64 l 1,15,-1
 192 -64 l 1,16,-1
 192 -192 l 1,17,-1
 128 -192 l 1,18,-1
 128 -256 l 1,19,-1
 0 -256 l 1,0,-1
EndSplineSet
EndChar

StartChar: asterisk
Encoding: 42 42 13
Width: 576
Flags: W
LayerCount: 2
Fore
SplineSet
0 320 m 1,0,-1
 0 384 l 1,1,-1
 64 384 l 1,2,-1
 64 512 l 1,3,-1
 0 512 l 1,4,-1
 0 576 l 1,5,-1
 128 576 l 1,6,-1
 128 640 l 1,7,-1
 256 640 l 1,8,-1
 256 576 l 1,9,-1
 384 576 l 1,10,-1
 384 512 l 1,11,-1
 320 512 l 1,12,-1
 320 384 l 1,13,-1
 384 384 l 1,14,-1
 384 320 l 1,15,-1
 256 320 l 1,16,-1
 256 384 l 1,17,-1
 128 384 l 1,18,-1
 128 320 l 1,19,-1
 0 320 l 1,0,-1
EndSplineSet
EndChar

StartChar: plus
Encoding: 43 43 14
Width: 512
Flags: W
LayerCount: 2
Fore
SplineSet
128 64 m 1,0,-1
 128 192 l 1,1,-1
 0 192 l 1,2,-1
 0 320 l 1,3,-1
 128 320 l 1,4,-1
 128 448 l 1,5,-1
 256 448 l 1,6,-1
 256 320 l 1,7,-1
 384 320 l 1,8,-1
 384 192 l 1,9,-1
 256 192 l 1,10,-1
 256 64 l 1,11,-1
 128 64 l 1,0,-1
EndSplineSet
EndChar

StartChar: comma
Encoding: 44 44 15
Width: 512
Flags: W
LayerCount: 2
Fore
SplineSet
64 -128 m 1,0,-1
 64 0 l 1,1,-1
 128 0 l 1,2,-1
 128 64 l 1,3,-1
 192 64 l 1,4,-1
 192 -64 l 1,5,-1
 128 -64 l 1,6,-1
 128 -128 l 1,7,-1
 64 -128 l 1,0,-1
EndSplineSet
EndChar

StartChar: hyphen
Encoding: 45 45 16
Width: 448
Flags: W
LayerCount: 2
Fore
SplineSet
0 192 m 1,0,-1
 0 320 l 1,1,-1
 320 320 l 1,2,-1
 320 192 l 1,3,-1
 0 192 l 1,0,-1
EndSplineSet
EndChar

StartChar: period
Encoding: 46 46 17
Width: 512
Flags: W
LayerCount: 2
Fore
SplineSet
64 0 m 1,0,-1
 64 128 l 1,1,-1
 192 128 l 1,2,-1
 192 0 l 1,3,-1
 64 0 l 1,0,-1
EndSplineSet
EndChar

StartChar: slash
Encoding: 47 47 18
Width: 448
Flags: W
LayerCount: 2
Fore
SplineSet
0 -64 m 1,0,-1
 0 64 l 1,1,-1
 64 64 l 1,2,-1
 64 192 l 1,3,-1
 128 192 l 1,4,-1
 128 320 l 1,5,-1
 192 320 l 1,6,-1
 192 448 l 1,7,-1
 256 448 l 1,8,-1
 256 576 l 1,9,-1
 320 576 l 1,10,-1
 320 640 l 1,11,-1
 384 640 l 1,12,-1
 384 512 l 1,13,-1
 320 512 l 1,14,-1
 320 320 l 1,15,-1
 256 320 l 1,16,-1
 256 256 l 1,17,-1
 192 256 l 1,18,-1
 192 128 l 1,19,-1
 128 128 l 1,20,-1
 128 -64 l 1,21,-1
 0 -64 l 1,0,-1
EndSplineSet
EndChar

StartChar: zero
Encoding: 48 48 19
Width: 512
Flags: W
LayerCount: 2
Fore
SplineSet
256 128 m 1,0,-1
 256 512 l 1,1,-1
 128 512 l 1,2,-1
 128 128 l 1,3,-1
 256 128 l 1,0,-1
64 0 m 1,4,-1
 64 128 l 1,5,-1
 0 128 l 1,6,-1
 0 512 l 1,7,-1
 64 512 l 1,8,-1
 64 576 l 1,9,-1
 128 576 l 1,10,-1
 128 640 l 1,11,-1
 320 640 l 1,12,-1
 320 512 l 1,13,-1
 384 512 l 1,14,-1
 384 128 l 1,15,-1
 320 128 l 1,16,-1
 320 0 l 1,17,-1
 64 0 l 1,4,-1
EndSplineSet
EndChar

StartChar: one
Encoding: 49 49 20
Width: 512
Flags: W
LayerCount: 2
Fore
SplineSet
0 0 m 1,0,-1
 0 128 l 1,1,-1
 128 128 l 1,2,-1
 128 448 l 1,3,-1
 0 448 l 1,4,-1
 0 576 l 1,5,-1
 128 576 l 1,6,-1
 128 640 l 1,7,-1
 256 640 l 1,8,-1
 256 128 l 1,9,-1
 384 128 l 1,10,-1
 384 0 l 1,11,-1
 0 0 l 1,0,-1
EndSplineSet
EndChar

StartChar: two
Encoding: 50 50 21
Width: 512
Flags: W
LayerCount: 2
Fore
SplineSet
0 0 m 1,0,-1
 0 192 l 1,1,-1
 64 192 l 1,2,-1
 64 256 l 1,3,-1
 128 256 l 1,4,-1
 128 320 l 1,5,-1
 192 320 l 1,6,-1
 192 384 l 1,7,-1
 320 384 l 1,8,-1
 320 512 l 1,9,-1
 128 512 l 1,10,-1
 128 448 l 1,11,-1
 0 448 l 1,12,-1
 0 576 l 1,13,-1
 128 576 l 1,14,-1
 128 640 l 1,15,-1
 384 640 l 1,16,-1
 384 576 l 1,17,-1
 448 576 l 1,18,-1
 448 384 l 1,19,-1
 384 384 l 1,20,-1
 384 320 l 1,21,-1
 320 320 l 1,22,-1
 320 256 l 1,23,-1
 192 256 l 1,24,-1
 192 192 l 1,25,-1
 128 192 l 1,26,-1
 128 128 l 1,27,-1
 448 128 l 1,28,-1
 448 0 l 1,29,-1
 0 0 l 1,0,-1
EndSplineSet
EndChar

StartChar: three
Encoding: 51 51 22
Width: 512
Flags: W
LayerCount: 2
Fore
SplineSet
64 0 m 1,0,-1
 64 64 l 1,1,-1
 0 64 l 1,2,-1
 0 192 l 1,3,-1
 128 192 l 1,4,-1
 128 128 l 1,5,-1
 256 128 l 1,6,-1
 256 256 l 1,7,-1
 64 256 l 1,8,-1
 64 384 l 1,9,-1
 256 384 l 1,10,-1
 256 512 l 1,11,-1
 128 512 l 1,12,-1
 128 448 l 1,13,-1
 0 448 l 1,14,-1
 0 576 l 1,15,-1
 64 576 l 1,16,-1
 64 640 l 1,17,-1
 320 640 l 1,18,-1
 320 576 l 1,19,-1
 384 576 l 1,20,-1
 384 384 l 1,21,-1
 320 384 l 1,22,-1
 320 320 l 1,23,-1
 384 320 l 1,24,-1
 384 64 l 1,25,-1
 320 64 l 1,26,-1
 320 0 l 1,27,-1
 64 0 l 1,0,-1
EndSplineSet
EndChar

StartChar: four
Encoding: 52 52 23
Width: 512
Flags: W
LayerCount: 2
Fore
SplineSet
128 384 m 1,0,-1
 128 448 l 1,1,-1
 192 448 l 1,2,-1
 192 384 l 1,3,-1
 128 384 l 1,0,-1
256 0 m 1,4,-1
 256 192 l 1,5,-1
 0 192 l 1,6,-1
 0 320 l 1,7,-1
 64 320 l 1,8,-1
 64 384 l 1,9,-1
 128 384 l 1,10,-1
 128 320 l 1,11,-1
 256 320 l 1,12,-1
 256 448 l 1,13,-1
 192 448 l 1,14,-1
 192 576 l 1,15,-1
 256 576 l 1,16,-1
 256 640 l 1,17,-1
 384 640 l 1,18,-1
 384 320 l 1,19,-1
 448 320 l 1,20,-1
 448 192 l 1,21,-1
 384 192 l 1,22,-1
 384 0 l 1,23,-1
 256 0 l 1,4,-1
EndSplineSet
EndChar

StartChar: five
Encoding: 53 53 24
Width: 512
Flags: W
LayerCount: 2
Fore
SplineSet
64 0 m 1,0,-1
 64 64 l 1,1,-1
 0 64 l 1,2,-1
 0 192 l 1,3,-1
 64 192 l 1,4,-1
 64 128 l 1,5,-1
 256 128 l 1,6,-1
 256 320 l 1,7,-1
 0 320 l 1,8,-1
 0 640 l 1,9,-1
 384 640 l 1,10,-1
 384 512 l 1,11,-1
 128 512 l 1,12,-1
 128 448 l 1,13,-1
 320 448 l 1,14,-1
 320 384 l 1,15,-1
 384 384 l 1,16,-1
 384 128 l 1,17,-1
 320 128 l 1,18,-1
 320 64 l 1,19,-1
 256 64 l 1,20,-1
 256 0 l 1,21,-1
 64 0 l 1,0,-1
EndSplineSet
EndChar

StartChar: six
Encoding: 54 54 25
Width: 512
Flags: W
LayerCount: 2
Fore
SplineSet
256 128 m 1,0,-1
 256 256 l 1,1,-1
 128 256 l 1,2,-1
 128 128 l 1,3,-1
 256 128 l 1,0,-1
64 0 m 1,4,-1
 64 64 l 1,5,-1
 0 64 l 1,6,-1
 0 448 l 1,7,-1
 64 448 l 1,8,-1
 64 512 l 1,9,-1
 128 512 l 1,10,-1
 128 576 l 1,11,-1
 192 576 l 1,12,-1
 192 640 l 1,13,-1
 320 640 l 1,14,-1
 320 512 l 1,15,-1
 256 512 l 1,16,-1
 256 448 l 1,17,-1
 192 448 l 1,18,-1
 192 384 l 1,19,-1
 320 384 l 1,20,-1
 320 320 l 1,21,-1
 384 320 l 1,22,-1
 384 64 l 1,23,-1
 320 64 l 1,24,-1
 320 0 l 1,25,-1
 64 0 l 1,4,-1
EndSplineSet
EndChar

StartChar: seven
Encoding: 55 55 26
Width: 512
Flags: W
LayerCount: 2
Fore
SplineSet
64 0 m 1,0,-1
 64 128 l 1,1,-1
 128 128 l 1,2,-1
 128 256 l 1,3,-1
 192 256 l 1,4,-1
 192 384 l 1,5,-1
 256 384 l 1,6,-1
 256 448 l 1,7,-1
 320 448 l 1,8,-1
 320 320 l 1,9,-1
 256 320 l 1,10,-1
 256 128 l 1,11,-1
 192 128 l 1,12,-1
 192 0 l 1,13,-1
 64 0 l 1,0,-1
320 448 m 1,14,-1
 320 512 l 1,15,-1
 0 512 l 1,16,-1
 0 640 l 1,17,-1
 448 640 l 1,18,-1
 448 512 l 1,19,-1
 384 512 l 1,20,-1
 384 448 l 1,21,-1
 320 448 l 1,14,-1
EndSplineSet
EndChar

StartChar: eight
Encoding: 56 56 27
Width: 512
Flags: W
LayerCount: 2
Fore
SplineSet
256 128 m 1,0,-1
 256 256 l 1,1,-1
 128 256 l 1,2,-1
 128 128 l 1,3,-1
 256 128 l 1,0,-1
256 384 m 1,4,-1
 256 576 l 1,5,-1
 128 576 l 1,6,-1
 128 384 l 1,7,-1
 256 384 l 1,4,-1
64 0 m 1,8,-1
 64 64 l 1,9,-1
 0 64 l 1,10,-1
 0 256 l 1,11,-1
 64 256 l 1,12,-1
 64 384 l 1,13,-1
 0 384 l 1,14,-1
 0 576 l 1,15,-1
 64 576 l 1,16,-1
 64 640 l 1,17,-1
 320 640 l 1,18,-1
 320 576 l 1,19,-1
 384 576 l 1,20,-1
 384 384 l 1,21,-1
 320 384 l 1,22,-1
 320 256 l 1,23,-1
 384 256 l 1,24,-1
 384 64 l 1,25,-1
 320 64 l 1,26,-1
 320 0 l 1,27,-1
 64 0 l 1,8,-1
EndSplineSet
EndChar

StartChar: nine
Encoding: 57 57 28
Width: 512
Flags: W
LayerCount: 2
Fore
SplineSet
256 320 m 1,0,-1
 256 512 l 1,1,-1
 128 512 l 1,2,-1
 128 320 l 1,3,-1
 256 320 l 1,0,-1
64 0 m 1,4,-1
 64 128 l 1,5,-1
 192 128 l 1,6,-1
 192 192 l 1,7,-1
 64 192 l 1,8,-1
 64 256 l 1,9,-1
 0 256 l 1,10,-1
 0 576 l 1,11,-1
 64 576 l 1,12,-1
 64 640 l 1,13,-1
 320 640 l 1,14,-1
 320 576 l 1,15,-1
 384 576 l 1,16,-1
 384 256 l 1,17,-1
 320 256 l 1,18,-1
 320 128 l 1,19,-1
 256 128 l 1,20,-1
 256 64 l 1,21,-1
 192 64 l 1,22,-1
 192 0 l 1,23,-1
 64 0 l 1,4,-1
EndSplineSet
EndChar

StartChar: colon
Encoding: 58 58 29
Width: 320
Flags: W
LayerCount: 2
Fore
SplineSet
0 64 m 1,0,-1
 0 192 l 1,1,-1
 128 192 l 1,2,-1
 128 64 l 1,3,-1
 0 64 l 1,0,-1
0 320 m 1,4,-1
 0 448 l 1,5,-1
 128 448 l 1,6,-1
 128 320 l 1,7,-1
 0 320 l 1,4,-1
EndSplineSet
EndChar

StartChar: semicolon
Encoding: 59 59 30
Width: 384
Flags: W
LayerCount: 2
Fore
SplineSet
0 -64 m 1,0,-1
 0 64 l 1,1,-1
 64 64 l 1,2,-1
 64 128 l 1,3,-1
 192 128 l 1,4,-1
 192 0 l 1,5,-1
 128 0 l 1,6,-1
 128 -64 l 1,7,-1
 0 -64 l 1,0,-1
64 320 m 1,8,-1
 64 448 l 1,9,-1
 192 448 l 1,10,-1
 192 320 l 1,11,-1
 64 320 l 1,8,-1
EndSplineSet
EndChar

StartChar: less
Encoding: 60 60 31
Width: 384
Flags: W
LayerCount: 2
Fore
SplineSet
128 64 m 1,0,-1
 128 128 l 1,1,-1
 64 128 l 1,2,-1
 64 192 l 1,3,-1
 0 192 l 1,4,-1
 0 256 l 1,5,-1
 64 256 l 1,6,-1
 64 320 l 1,7,-1
 128 320 l 1,8,-1
 128 384 l 1,9,-1
 192 384 l 1,10,-1
 192 448 l 1,11,-1
 256 448 l 1,12,-1
 256 320 l 1,13,-1
 192 320 l 1,14,-1
 192 256 l 1,15,-1
 128 256 l 1,16,-1
 128 192 l 1,17,-1
 192 192 l 1,18,-1
 192 128 l 1,19,-1
 256 128 l 1,20,-1
 256 64 l 1,21,-1
 128 64 l 1,0,-1
EndSplineSet
EndChar

StartChar: equal
Encoding: 61 61 32
Width: 448
Flags: W
LayerCount: 2
Fore
SplineSet
0 64 m 1,0,-1
 0 192 l 1,1,-1
 320 192 l 1,2,-1
 320 64 l 1,3,-1
 0 64 l 1,0,-1
0 320 m 1,4,-1
 0 448 l 1,5,-1
 320 448 l 1,6,-1
 320 320 l 1,7,-1
 0 320 l 1,4,-1
EndSplineSet
EndChar

StartChar: greater
Encoding: 62 62 33
Width: 384
Flags: W
LayerCount: 2
Fore
SplineSet
0 64 m 1,0,-1
 0 128 l 1,1,-1
 64 128 l 1,2,-1
 64 192 l 1,3,-1
 128 192 l 1,4,-1
 128 256 l 1,5,-1
 64 256 l 1,6,-1
 64 320 l 1,7,-1
 0 320 l 1,8,-1
 0 448 l 1,9,-1
 64 448 l 1,10,-1
 64 384 l 1,11,-1
 128 384 l 1,12,-1
 128 320 l 1,13,-1
 256 320 l 1,14,-1
 256 192 l 1,15,-1
 192 192 l 1,16,-1
 192 128 l 1,17,-1
 128 128 l 1,18,-1
 128 64 l 1,19,-1
 0 64 l 1,0,-1
EndSplineSet
EndChar

StartChar: question
Encoding: 63 63 34
Width: 640
Flags: W
LayerCount: 2
Fore
SplineSet
128 0 m 1,0,-1
 128 128 l 1,1,-1
 256 128 l 1,2,-1
 256 0 l 1,3,-1
 128 0 l 1,0,-1
128 192 m 1,4,-1
 128 320 l 1,5,-1
 256 320 l 1,6,-1
 256 384 l 1,7,-1
 320 384 l 1,8,-1
 320 448 l 1,9,-1
 256 448 l 1,10,-1
 256 512 l 1,11,-1
 128 512 l 1,12,-1
 128 448 l 1,13,-1
 0 448 l 1,14,-1
 0 576 l 1,15,-1
 64 576 l 1,16,-1
 64 640 l 1,17,-1
 320 640 l 1,18,-1
 320 576 l 1,19,-1
 384 576 l 1,20,-1
 384 512 l 1,21,-1
 448 512 l 1,22,-1
 448 384 l 1,23,-1
 384 384 l 1,24,-1
 384 320 l 1,25,-1
 320 320 l 1,26,-1
 320 256 l 1,27,-1
 256 256 l 1,28,-1
 256 192 l 1,29,-1
 128 192 l 1,4,-1
EndSplineSet
EndChar

StartChar: at
Encoding: 64 64 35
Width: 896
Flags: W
LayerCount: 2
Fore
SplineSet
192 -64 m 1,0,-1
 192 0 l 1,1,-1
 128 0 l 1,2,-1
 128 64 l 1,3,-1
 64 64 l 1,4,-1
 64 128 l 1,5,-1
 0 128 l 1,6,-1
 0 448 l 1,7,-1
 64 448 l 1,8,-1
 64 512 l 1,9,-1
 128 512 l 1,10,-1
 128 576 l 1,11,-1
 192 576 l 1,12,-1
 192 640 l 1,13,-1
 576 640 l 1,14,-1
 576 576 l 1,15,-1
 704 576 l 1,16,-1
 704 512 l 1,17,-1
 768 512 l 1,18,-1
 768 256 l 1,19,-1
 704 256 l 1,20,-1
 704 192 l 1,21,-1
 256 192 l 1,22,-1
 256 256 l 1,23,-1
 192 256 l 1,24,-1
 192 384 l 1,25,-1
 320 384 l 1,26,-1
 320 320 l 1,27,-1
 384 320 l 1,28,-1
 384 384 l 1,29,-1
 320 384 l 1,30,-1
 320 448 l 1,31,-1
 448 448 l 1,32,-1
 448 384 l 1,33,-1
 512 384 l 1,34,-1
 512 320 l 1,35,-1
 640 320 l 1,36,-1
 640 448 l 1,37,-1
 576 448 l 1,38,-1
 576 512 l 1,39,-1
 256 512 l 1,40,-1
 256 448 l 1,41,-1
 192 448 l 1,42,-1
 192 384 l 1,43,-1
 128 384 l 1,44,-1
 128 192 l 1,45,-1
 192 192 l 1,46,-1
 192 128 l 1,47,-1
 256 128 l 1,48,-1
 256 64 l 1,49,-1
 448 64 l 1,50,-1
 448 128 l 1,51,-1
 576 128 l 1,52,-1
 576 0 l 1,53,-1
 512 0 l 1,54,-1
 512 -64 l 1,55,-1
 192 -64 l 1,0,-1
EndSplineSet
EndChar

StartChar: A
Encoding: 65 65 36
Width: 594
VWidth: 921
Flags: W
LayerCount: 2
Fore
SplineSet
326.700195312 329.512695312 m 1,0,-1
 326.700195312 395.4375 l 1,1,-1
 261 395.4375 l 1,2,-1
 261 329.512695312 l 1,3,-1
 326.700195312 329.512695312 l 1,0,-1
-2.25 0.5625 m 1,4,-1
 -2.25 132.1875 l 1,5,-1
 63.4501953125 132.1875 l 1,6,-1
 63.4501953125 263.8125 l 1,7,-1
 129.375 263.8125 l 1,8,-1
 129.375 395.4375 l 1,9,-1
 195.075195312 395.4375 l 1,10,-1
 195.075195312 527.0625 l 1,11,-1
 261 527.0625 l 1,12,-1
 261 592.987304688 l 1,13,-1
 326.700195312 592.987304688 l 1,14,-1
 326.700195312 658.6875 l 1,15,-1
 392.625 658.6875 l 1,16,-1
 392.625 461.362304688 l 1,17,-1
 458.549804688 461.362304688 l 1,18,-1
 458.549804688 132.1875 l 1,19,-1
 524.25 132.1875 l 1,20,-1
 524.25 0.5625 l 1,21,-1
 392.625 0.5625 l 1,22,-1
 392.625 197.887695312 l 1,23,-1
 195.075195312 197.887695312 l 1,24,-1
 195.075195312 132.1875 l 1,25,-1
 129.375 132.1875 l 1,26,-1
 129.375 0.5625 l 1,27,-1
 -2.25 0.5625 l 1,4,-1
EndSplineSet
EndChar

StartChar: B
Encoding: 66 66 37
Width: 507
VWidth: 921
Flags: W
LayerCount: 2
Fore
SplineSet
263.25 131.625 m 1,0,-1
 263.25 197.325195312 l 1,1,-1
 328.950195312 197.325195312 l 1,2,-1
 328.950195312 263.25 l 1,3,-1
 131.625 263.25 l 1,4,-1
 131.625 131.625 l 1,5,-1
 263.25 131.625 l 1,0,-1
263.25 394.875 m 1,6,-1
 263.25 526.5 l 1,7,-1
 131.625 526.5 l 1,8,-1
 131.625 394.875 l 1,9,-1
 263.25 394.875 l 1,6,-1
0 0 m 1,10,-1
 0 658.125 l 1,11,-1
 263.25 658.125 l 1,12,-1
 263.25 592.424804688 l 1,13,-1
 394.875 592.424804688 l 1,14,-1
 394.875 394.875 l 1,15,-1
 328.950195312 394.875 l 1,16,-1
 328.950195312 328.950195312 l 1,17,-1
 394.875 328.950195312 l 1,18,-1
 394.875 263.25 l 1,19,-1
 460.799804688 263.25 l 1,20,-1
 460.799804688 131.625 l 1,21,-1
 394.875 131.625 l 1,22,-1
 394.875 65.7001953125 l 1,23,-1
 328.950195312 65.7001953125 l 1,24,-1
 328.950195312 0 l 1,25,-1
 0 0 l 1,10,-1
EndSplineSet
EndChar

StartChar: C
Encoding: 67 67 38
Width: 589
VWidth: 921
Flags: W
LayerCount: 2
Fore
SplineSet
129.375 0.5625 m 1,0,-1
 129.375 66.2626953125 l 1,1,-1
 63.4501953125 66.2626953125 l 1,2,-1
 63.4501953125 132.1875 l 1,3,-1
 -2.25 132.1875 l 1,4,-1
 -2.25 395.4375 l 1,5,-1
 63.4501953125 395.4375 l 1,6,-1
 63.4501953125 461.362304688 l 1,7,-1
 129.375 461.362304688 l 1,8,-1
 129.375 592.987304688 l 1,9,-1
 261 592.987304688 l 1,10,-1
 261 658.6875 l 1,11,-1
 524.25 658.6875 l 1,12,-1
 524.25 461.362304688 l 1,13,-1
 392.625 461.362304688 l 1,14,-1
 392.625 527.0625 l 1,15,-1
 261 527.0625 l 1,16,-1
 261 461.362304688 l 1,17,-1
 195.075195312 461.362304688 l 1,18,-1
 195.075195312 329.512695312 l 1,19,-1
 129.375 329.512695312 l 1,20,-1
 129.375 132.1875 l 1,21,-1
 392.625 132.1875 l 1,22,-1
 392.625 197.887695312 l 1,23,-1
 524.25 197.887695312 l 1,24,-1
 524.25 66.2626953125 l 1,25,-1
 392.625 66.2626953125 l 1,26,-1
 392.625 0.5625 l 1,27,-1
 129.375 0.5625 l 1,0,-1
EndSplineSet
EndChar

StartChar: D
Encoding: 68 68 39
Width: 520
VWidth: 921
Flags: W
LayerCount: 2
Fore
SplineSet
263.25 132.1875 m 1,0,-1
 263.25 197.887695312 l 1,1,-1
 328.950195312 197.887695312 l 1,2,-1
 328.950195312 395.4375 l 1,3,-1
 263.25 395.4375 l 1,4,-1
 263.25 461.362304688 l 1,5,-1
 197.325195312 461.362304688 l 1,6,-1
 197.325195312 527.0625 l 1,7,-1
 131.625 527.0625 l 1,8,-1
 131.625 132.1875 l 1,9,-1
 263.25 132.1875 l 1,0,-1
65.7001953125 0.5625 m 1,10,-1
 65.7001953125 66.2626953125 l 1,11,-1
 0 66.2626953125 l 1,12,-1
 0 658.6875 l 1,13,-1
 131.625 658.6875 l 1,14,-1
 131.625 592.987304688 l 1,15,-1
 263.25 592.987304688 l 1,16,-1
 263.25 527.0625 l 1,17,-1
 328.950195312 527.0625 l 1,18,-1
 328.950195312 461.362304688 l 1,19,-1
 394.875 461.362304688 l 1,20,-1
 394.875 395.4375 l 1,21,-1
 460.799804688 395.4375 l 1,22,-1
 460.799804688 132.1875 l 1,23,-1
 394.875 132.1875 l 1,24,-1
 394.875 66.2626953125 l 1,25,-1
 328.950195312 66.2626953125 l 1,26,-1
 328.950195312 0.5625 l 1,27,-1
 65.7001953125 0.5625 l 1,10,-1
EndSplineSet
EndChar

StartChar: E
Encoding: 69 69 40
Width: 540
VWidth: 921
Flags: W
LayerCount: 2
Fore
SplineSet
65.7001953125 0.5625 m 1,0,-1
 65.7001953125 66.2626953125 l 1,1,-1
 0 66.2626953125 l 1,2,-1
 0 658.6875 l 1,3,-1
 460.799804688 658.6875 l 1,4,-1
 460.799804688 527.0625 l 1,5,-1
 131.625 527.0625 l 1,6,-1
 131.625 395.4375 l 1,7,-1
 460.799804688 395.4375 l 1,8,-1
 460.799804688 263.8125 l 1,9,-1
 131.625 263.8125 l 1,10,-1
 131.625 132.1875 l 1,11,-1
 460.799804688 132.1875 l 1,12,-1
 460.799804688 0.5625 l 1,13,-1
 65.7001953125 0.5625 l 1,0,-1
EndSplineSet
EndChar

StartChar: F
Encoding: 70 70 41
Width: 450
VWidth: 921
Flags: W
LayerCount: 2
Fore
SplineSet
0 0 m 1,0,-1
 0 658.125 l 1,1,-1
 394.875 658.125 l 1,2,-1
 394.875 526.5 l 1,3,-1
 131.625 526.5 l 1,4,-1
 131.625 394.875 l 1,5,-1
 394.875 394.875 l 1,6,-1
 394.875 263.25 l 1,7,-1
 131.625 263.25 l 1,8,-1
 131.625 0 l 1,9,-1
 0 0 l 1,0,-1
EndSplineSet
EndChar

StartChar: G
Encoding: 71 71 42
Width: 688
VWidth: 921
Flags: W
LayerCount: 2
Fore
SplineSet
65.7001953125 0.5625 m 5,0,-1
 65.7001953125 66.2626953125 l 5,1,-1
 0 66.2626953125 l 5,2,-1
 0 395.4375 l 5,3,-1
 65.7001953125 395.4375 l 5,4,-1
 65.7001953125 527.0625 l 5,5,-1
 131.625 527.0625 l 5,6,-1
 131.625 592.987304688 l 5,7,-1
 197.325195312 592.987304688 l 5,8,-1
 197.325195312 658.6875 l 5,9,-1
 460.799804688 658.6875 l 5,10,-1
 460.799804688 592.987304688 l 5,11,-1
 526.5 592.987304688 l 5,12,-1
 526.5 461.362304688 l 5,13,-1
 394.875 461.362304688 l 5,14,-1
 394.875 527.0625 l 5,15,-1
 263.25 527.0625 l 5,16,-1
 263.25 461.362304688 l 5,17,-1
 197.325195312 461.362304688 l 5,18,-1
 197.325195312 395.4375 l 5,19,-1
 131.625 395.4375 l 5,20,-1
 131.625 132.1875 l 5,21,-1
 394.875 132.1875 l 5,22,-1
 394.875 197.887695312 l 5,23,-1
 197.325195312 197.887695312 l 5,24,-1
 197.325195312 263.8125 l 5,25,-1
 263.25 263.8125 l 5,26,-1
 263.25 329.512695312 l 5,27,-1
 592.424804688 329.512695312 l 5,28,-1
 592.424804688 132.1875 l 5,29,-1
 526.5 132.1875 l 5,30,-1
 526.5 66.2626953125 l 5,31,-1
 394.875 66.2626953125 l 5,32,-1
 394.875 0.5625 l 5,33,-1
 65.7001953125 0.5625 l 5,0,-1
EndSplineSet
EndChar

StartChar: H
Encoding: 72 72 43
Width: 589
VWidth: 921
Flags: W
LayerCount: 2
Fore
SplineSet
-2.25 0.5625 m 1,0,-1
 -2.25 658.6875 l 1,1,-1
 129.375 658.6875 l 1,2,-1
 129.375 395.4375 l 1,3,-1
 392.625 395.4375 l 1,4,-1
 392.625 658.6875 l 1,5,-1
 524.25 658.6875 l 1,6,-1
 524.25 0.5625 l 1,7,-1
 392.625 0.5625 l 1,8,-1
 392.625 263.8125 l 1,9,-1
 129.375 263.8125 l 1,10,-1
 129.375 0.5625 l 1,11,-1
 -2.25 0.5625 l 1,0,-1
EndSplineSet
EndChar

StartChar: I
Encoding: 73 73 44
Width: 448
VWidth: 921
Flags: W
LayerCount: 2
Fore
SplineSet
0 0 m 1,0,-1
 0 131.625 l 1,1,-1
 131.625 131.625 l 1,2,-1
 131.625 526.5 l 1,3,-1
 0 526.5 l 1,4,-1
 0 658.125 l 1,5,-1
 394.875 658.125 l 1,6,-1
 394.875 526.5 l 1,7,-1
 263.25 526.5 l 1,8,-1
 263.25 131.625 l 1,9,-1
 394.875 131.625 l 1,10,-1
 394.875 0 l 1,11,-1
 0 0 l 1,0,-1
EndSplineSet
EndChar

StartChar: J
Encoding: 74 74 45
Width: 589
VWidth: 889
Flags: W
LayerCount: 2
Fore
SplineSet
129.375 -97.9873046875 m 1,0,-1
 129.375 -32.287109375 l 1,1,-1
 63.4501953125 -32.287109375 l 1,2,-1
 63.4501953125 33.412109375 l 1,3,-1
 -2.25 33.412109375 l 1,4,-1
 -2.25 165.037109375 l 1,5,-1
 129.375 165.037109375 l 1,6,-1
 129.375 33.412109375 l 1,7,-1
 261 33.412109375 l 1,8,-1
 261 494.212890625 l 1,9,-1
 63.4501953125 494.212890625 l 1,10,-1
 63.4501953125 625.837890625 l 1,11,-1
 524.25 625.837890625 l 1,12,-1
 524.25 494.212890625 l 1,13,-1
 392.625 494.212890625 l 1,14,-1
 392.625 -32.287109375 l 1,15,-1
 326.700195312 -32.287109375 l 1,16,-1
 326.700195312 -97.9873046875 l 1,17,-1
 129.375 -97.9873046875 l 1,0,-1
EndSplineSet
EndChar

StartChar: K
Encoding: 75 75 46
Width: 531
VWidth: 921
Flags: W
LayerCount: 2
Fore
SplineSet
0 0 m 1,0,-1
 0 658.125 l 1,1,-1
 131.625 658.125 l 1,2,-1
 131.625 460.799804688 l 1,3,-1
 197.325195312 460.799804688 l 1,4,-1
 197.325195312 526.5 l 1,5,-1
 263.25 526.5 l 1,6,-1
 263.25 592.424804688 l 1,7,-1
 328.950195312 592.424804688 l 1,8,-1
 328.950195312 658.125 l 1,9,-1
 460.799804688 658.125 l 1,10,-1
 460.799804688 526.5 l 1,11,-1
 394.875 526.5 l 1,12,-1
 394.875 460.799804688 l 1,13,-1
 328.950195312 460.799804688 l 1,14,-1
 328.950195312 394.875 l 1,15,-1
 263.25 394.875 l 1,16,-1
 263.25 328.950195312 l 1,17,-1
 197.325195312 328.950195312 l 1,18,-1
 197.325195312 263.25 l 1,19,-1
 263.25 263.25 l 1,20,-1
 263.25 197.325195312 l 1,21,-1
 394.875 197.325195312 l 1,22,-1
 394.875 131.625 l 1,23,-1
 460.799804688 131.625 l 1,24,-1
 460.799804688 0 l 1,25,-1
 328.950195312 0 l 1,26,-1
 328.950195312 65.7001953125 l 1,27,-1
 263.25 65.7001953125 l 1,28,-1
 263.25 131.625 l 1,29,-1
 197.325195312 131.625 l 1,30,-1
 197.325195312 197.325195312 l 1,31,-1
 131.625 197.325195312 l 1,32,-1
 131.625 0 l 1,33,-1
 0 0 l 1,0,-1
EndSplineSet
EndChar

StartChar: L
Encoding: 76 76 47
Width: 448
VWidth: 921
Flags: W
LayerCount: 2
Fore
SplineSet
0 0 m 1,0,-1
 0 658.125 l 1,1,-1
 131.625 658.125 l 1,2,-1
 131.625 131.625 l 1,3,-1
 394.875 131.625 l 1,4,-1
 394.875 0 l 1,5,-1
 0 0 l 1,0,-1
EndSplineSet
EndChar

StartChar: M
Encoding: 77 77 48
Width: 787
VWidth: 921
Flags: W
LayerCount: 2
Fore
SplineSet
0 0 m 1,0,-1
 0 197.325195312 l 1,1,-1
 65.7001953125 197.325195312 l 1,2,-1
 65.7001953125 460.799804688 l 1,3,-1
 131.625 460.799804688 l 1,4,-1
 131.625 658.125 l 1,5,-1
 263.25 658.125 l 1,6,-1
 263.25 460.799804688 l 1,7,-1
 328.950195312 460.799804688 l 1,8,-1
 328.950195312 263.25 l 1,9,-1
 394.875 263.25 l 1,10,-1
 394.875 460.799804688 l 1,11,-1
 460.799804688 460.799804688 l 1,12,-1
 460.799804688 658.125 l 1,13,-1
 592.424804688 658.125 l 1,14,-1
 592.424804688 328.950195312 l 1,15,-1
 658.125 328.950195312 l 1,16,-1
 658.125 0 l 1,17,-1
 526.5 0 l 1,18,-1
 526.5 328.950195312 l 1,19,-1
 460.799804688 328.950195312 l 1,20,-1
 460.799804688 131.625 l 1,21,-1
 394.875 131.625 l 1,22,-1
 394.875 0 l 1,23,-1
 263.25 0 l 1,24,-1
 263.25 197.325195312 l 1,25,-1
 131.625 197.325195312 l 1,26,-1
 131.625 0 l 1,27,-1
 0 0 l 1,0,-1
EndSplineSet
EndChar

StartChar: N
Encoding: 78 78 49
Width: 688
VWidth: 921
Flags: W
LayerCount: 2
Fore
SplineSet
0 0 m 1,0,-1
 0 658.125 l 1,1,-1
 131.625 658.125 l 1,2,-1
 131.625 526.5 l 1,3,-1
 197.325195312 526.5 l 1,4,-1
 197.325195312 460.799804688 l 1,5,-1
 263.25 460.799804688 l 1,6,-1
 263.25 328.950195312 l 1,7,-1
 197.325195312 328.950195312 l 1,8,-1
 197.325195312 394.875 l 1,9,-1
 131.625 394.875 l 1,10,-1
 131.625 0 l 1,11,-1
 0 0 l 1,0,-1
460.799804688 0 m 1,12,-1
 460.799804688 65.7001953125 l 1,13,-1
 394.875 65.7001953125 l 1,14,-1
 394.875 131.625 l 1,15,-1
 328.950195312 131.625 l 1,16,-1
 328.950195312 197.325195312 l 1,17,-1
 263.25 197.325195312 l 1,18,-1
 263.25 328.950195312 l 1,19,-1
 328.950195312 328.950195312 l 1,20,-1
 328.950195312 263.25 l 1,21,-1
 394.875 263.25 l 1,22,-1
 394.875 197.325195312 l 1,23,-1
 460.799804688 197.325195312 l 1,24,-1
 460.799804688 658.125 l 1,25,-1
 592.424804688 658.125 l 1,26,-1
 592.424804688 0 l 1,27,-1
 460.799804688 0 l 1,12,-1
EndSplineSet
EndChar

StartChar: O
Encoding: 79 79 50
Width: 787
VWidth: 921
Flags: W
LayerCount: 2
Fore
SplineSet
394.875 132.1875 m 1,0,-1
 394.875 197.887695312 l 1,1,-1
 460.799804688 197.887695312 l 1,2,-1
 460.799804688 263.8125 l 1,3,-1
 526.5 263.8125 l 1,4,-1
 526.5 461.362304688 l 1,5,-1
 460.799804688 461.362304688 l 1,6,-1
 460.799804688 527.0625 l 1,7,-1
 263.25 527.0625 l 1,8,-1
 263.25 461.362304688 l 1,9,-1
 197.325195312 461.362304688 l 1,10,-1
 197.325195312 395.4375 l 1,11,-1
 131.625 395.4375 l 1,12,-1
 131.625 197.887695312 l 1,13,-1
 197.325195312 197.887695312 l 1,14,-1
 197.325195312 132.1875 l 1,15,-1
 394.875 132.1875 l 1,0,-1
131.625 0.5625 m 1,16,-1
 131.625 66.2626953125 l 1,17,-1
 65.7001953125 66.2626953125 l 1,18,-1
 65.7001953125 132.1875 l 1,19,-1
 0 132.1875 l 1,20,-1
 0 461.362304688 l 1,21,-1
 65.7001953125 461.362304688 l 1,22,-1
 65.7001953125 527.0625 l 1,23,-1
 131.625 527.0625 l 1,24,-1
 131.625 592.987304688 l 1,25,-1
 197.325195312 592.987304688 l 1,26,-1
 197.325195312 658.6875 l 1,27,-1
 526.5 658.6875 l 1,28,-1
 526.5 592.987304688 l 1,29,-1
 592.424804688 592.987304688 l 1,30,-1
 592.424804688 527.0625 l 1,31,-1
 658.125 527.0625 l 1,32,-1
 658.125 197.887695312 l 1,33,-1
 592.424804688 197.887695312 l 1,34,-1
 592.424804688 132.1875 l 1,35,-1
 526.5 132.1875 l 1,36,-1
 526.5 66.2626953125 l 1,37,-1
 460.799804688 66.2626953125 l 1,38,-1
 460.799804688 0.5625 l 1,39,-1
 131.625 0.5625 l 1,16,-1
EndSplineSet
EndChar

StartChar: P
Encoding: 80 80 51
Width: 378
VWidth: 921
Flags: W
LayerCount: 2
Fore
SplineSet
197.325195312 394.875 m 1,0,-1
 197.325195312 526.5 l 1,1,-1
 131.625 526.5 l 1,2,-1
 131.625 394.875 l 1,3,-1
 197.325195312 394.875 l 1,0,-1
0 0 m 1,4,-1
 0 658.125 l 1,5,-1
 263.25 658.125 l 1,6,-1
 263.25 592.424804688 l 1,7,-1
 328.950195312 592.424804688 l 1,8,-1
 328.950195312 328.950195312 l 1,9,-1
 263.25 328.950195312 l 1,10,-1
 263.25 263.25 l 1,11,-1
 131.625 263.25 l 1,12,-1
 131.625 0 l 1,13,-1
 0 0 l 1,4,-1
EndSplineSet
EndChar

StartChar: Q
Encoding: 81 81 52
Width: 885
VWidth: 823
Flags: W
LayerCount: 2
Fore
SplineSet
526.5 131.400390625 m 1,0,-1
 526.5 197.325195312 l 1,1,-1
 592.424804688 197.325195312 l 1,2,-1
 592.424804688 460.575195312 l 1,3,-1
 526.5 460.575195312 l 1,4,-1
 526.5 592.200195312 l 1,5,-1
 263.25 592.200195312 l 1,6,-1
 263.25 526.5 l 1,7,-1
 197.325195312 526.5 l 1,8,-1
 197.325195312 460.575195312 l 1,9,-1
 131.625 460.575195312 l 1,10,-1
 131.625 263.025390625 l 1,11,-1
 197.325195312 263.025390625 l 1,12,-1
 197.325195312 197.325195312 l 1,13,-1
 263.25 197.325195312 l 1,14,-1
 263.25 131.400390625 l 1,15,-1
 328.950195312 131.400390625 l 1,16,-1
 328.950195312 263.025390625 l 1,17,-1
 460.799804688 263.025390625 l 1,18,-1
 460.799804688 131.400390625 l 1,19,-1
 526.5 131.400390625 l 1,0,-1
592.424804688 -131.625 m 1,20,-1
 592.424804688 -65.9248046875 l 1,21,-1
 526.5 -65.9248046875 l 1,22,-1
 526.5 0 l 1,23,-1
 197.325195312 0 l 1,24,-1
 197.325195312 65.7001953125 l 1,25,-1
 131.625 65.7001953125 l 1,26,-1
 131.625 131.400390625 l 1,27,-1
 65.7001953125 131.400390625 l 1,28,-1
 65.7001953125 197.325195312 l 1,29,-1
 0 197.325195312 l 1,30,-1
 0 526.5 l 1,31,-1
 65.7001953125 526.5 l 1,32,-1
 65.7001953125 592.200195312 l 1,33,-1
 131.625 592.200195312 l 1,34,-1
 131.625 658.125 l 1,35,-1
 263.25 658.125 l 1,36,-1
 263.25 723.825195312 l 1,37,-1
 526.5 723.825195312 l 1,38,-1
 526.5 658.125 l 1,39,-1
 658.125 658.125 l 1,40,-1
 658.125 526.5 l 1,41,-1
 724.049804688 526.5 l 1,42,-1
 724.049804688 197.325195312 l 1,43,-1
 658.125 197.325195312 l 1,44,-1
 658.125 131.400390625 l 1,45,-1
 592.424804688 131.400390625 l 1,46,-1
 592.424804688 65.7001953125 l 1,47,-1
 658.125 65.7001953125 l 1,48,-1
 658.125 0 l 1,49,-1
 724.049804688 0 l 1,50,-1
 724.049804688 -131.625 l 1,51,-1
 592.424804688 -131.625 l 1,20,-1
EndSplineSet
EndChar

StartChar: R
Encoding: 82 82 53
Width: 448
VWidth: 921
Flags: W
LayerCount: 2
Fore
SplineSet
263.25 328.950195312 m 1,0,-1
 263.25 460.799804688 l 1,1,-1
 197.325195312 460.799804688 l 1,2,-1
 197.325195312 526.5 l 1,3,-1
 131.625 526.5 l 1,4,-1
 131.625 328.950195312 l 1,5,-1
 263.25 328.950195312 l 1,0,-1
0 0 m 1,6,-1
 0 658.125 l 1,7,-1
 263.25 658.125 l 1,8,-1
 263.25 592.424804688 l 1,9,-1
 328.950195312 592.424804688 l 1,10,-1
 328.950195312 526.5 l 1,11,-1
 394.875 526.5 l 1,12,-1
 394.875 328.950195312 l 1,13,-1
 328.950195312 328.950195312 l 1,14,-1
 328.950195312 263.25 l 1,15,-1
 263.25 263.25 l 1,16,-1
 263.25 197.325195312 l 1,17,-1
 328.950195312 197.325195312 l 1,18,-1
 328.950195312 131.625 l 1,19,-1
 394.875 131.625 l 1,20,-1
 394.875 0 l 1,21,-1
 328.950195312 0 l 1,22,-1
 328.950195312 65.7001953125 l 1,23,-1
 263.25 65.7001953125 l 1,24,-1
 263.25 131.625 l 1,25,-1
 197.325195312 131.625 l 1,26,-1
 197.325195312 197.325195312 l 1,27,-1
 131.625 197.325195312 l 1,28,-1
 131.625 0 l 1,29,-1
 0 0 l 1,6,-1
EndSplineSet
EndChar

StartChar: S
Encoding: 83 83 54
Width: 589
VWidth: 921
Flags: W
LayerCount: 2
Fore
SplineSet
63.4501953125 0.5625 m 1,0,-1
 63.4501953125 66.2626953125 l 1,1,-1
 -2.25 66.2626953125 l 1,2,-1
 -2.25 197.887695312 l 1,3,-1
 129.375 197.887695312 l 1,4,-1
 129.375 132.1875 l 1,5,-1
 326.700195312 132.1875 l 1,6,-1
 326.700195312 197.887695312 l 1,7,-1
 392.625 197.887695312 l 1,8,-1
 392.625 263.8125 l 1,9,-1
 129.375 263.8125 l 1,10,-1
 129.375 329.512695312 l 1,11,-1
 63.4501953125 329.512695312 l 1,12,-1
 63.4501953125 527.0625 l 1,13,-1
 129.375 527.0625 l 1,14,-1
 129.375 592.987304688 l 1,15,-1
 195.075195312 592.987304688 l 1,16,-1
 195.075195312 658.6875 l 1,17,-1
 392.625 658.6875 l 1,18,-1
 392.625 592.987304688 l 1,19,-1
 458.549804688 592.987304688 l 1,20,-1
 458.549804688 527.0625 l 1,21,-1
 195.075195312 527.0625 l 1,22,-1
 195.075195312 395.4375 l 1,23,-1
 458.549804688 395.4375 l 1,24,-1
 458.549804688 329.512695312 l 1,25,-1
 524.25 329.512695312 l 1,26,-1
 524.25 132.1875 l 1,27,-1
 458.549804688 132.1875 l 1,28,-1
 458.549804688 66.2626953125 l 1,29,-1
 392.625 66.2626953125 l 1,30,-1
 392.625 0.5625 l 1,31,-1
 63.4501953125 0.5625 l 1,0,-1
EndSplineSet
EndChar

StartChar: T
Encoding: 84 84 55
Width: 589
VWidth: 921
Flags: W
LayerCount: 2
Fore
SplineSet
195.075195312 0.5625 m 1,0,-1
 195.075195312 527.0625 l 1,1,-1
 -2.25 527.0625 l 1,2,-1
 -2.25 658.6875 l 1,3,-1
 524.25 658.6875 l 1,4,-1
 524.25 527.0625 l 1,5,-1
 326.700195312 527.0625 l 1,6,-1
 326.700195312 0.5625 l 1,7,-1
 195.075195312 0.5625 l 1,0,-1
EndSplineSet
EndChar

StartChar: U
Encoding: 85 85 56
Width: 589
VWidth: 921
Flags: W
LayerCount: 2
Fore
SplineSet
129.375 0.5625 m 1,0,-1
 129.375 66.2626953125 l 1,1,-1
 63.4501953125 66.2626953125 l 1,2,-1
 63.4501953125 132.1875 l 1,3,-1
 -2.25 132.1875 l 1,4,-1
 -2.25 658.6875 l 1,5,-1
 129.375 658.6875 l 1,6,-1
 129.375 197.887695312 l 1,7,-1
 195.075195312 197.887695312 l 1,8,-1
 195.075195312 132.1875 l 1,9,-1
 326.700195312 132.1875 l 1,10,-1
 326.700195312 263.8125 l 1,11,-1
 392.625 263.8125 l 1,12,-1
 392.625 658.6875 l 1,13,-1
 524.25 658.6875 l 1,14,-1
 524.25 263.8125 l 1,15,-1
 458.549804688 263.8125 l 1,16,-1
 458.549804688 132.1875 l 1,17,-1
 392.625 132.1875 l 1,18,-1
 392.625 66.2626953125 l 1,19,-1
 326.700195312 66.2626953125 l 1,20,-1
 326.700195312 0.5625 l 1,21,-1
 129.375 0.5625 l 1,0,-1
EndSplineSet
EndChar

StartChar: V
Encoding: 86 86 57
Width: 688
VWidth: 921
Flags: W
LayerCount: 2
Fore
SplineSet
197.325195312 0.5625 m 1,0,-1
 197.325195312 132.1875 l 1,1,-1
 131.625 132.1875 l 1,2,-1
 131.625 263.8125 l 1,3,-1
 65.7001953125 263.8125 l 1,4,-1
 65.7001953125 461.362304688 l 1,5,-1
 0 461.362304688 l 1,6,-1
 0 658.6875 l 1,7,-1
 131.625 658.6875 l 1,8,-1
 131.625 527.0625 l 1,9,-1
 197.325195312 527.0625 l 1,10,-1
 197.325195312 263.8125 l 1,11,-1
 328.950195312 263.8125 l 1,12,-1
 328.950195312 461.362304688 l 1,13,-1
 394.875 461.362304688 l 1,14,-1
 394.875 592.987304688 l 1,15,-1
 460.799804688 592.987304688 l 1,16,-1
 460.799804688 658.6875 l 1,17,-1
 592.424804688 658.6875 l 1,18,-1
 592.424804688 527.0625 l 1,19,-1
 526.5 527.0625 l 1,20,-1
 526.5 395.4375 l 1,21,-1
 460.799804688 395.4375 l 1,22,-1
 460.799804688 263.8125 l 1,23,-1
 394.875 263.8125 l 1,24,-1
 394.875 66.2626953125 l 1,25,-1
 328.950195312 66.2626953125 l 1,26,-1
 328.950195312 0.5625 l 1,27,-1
 197.325195312 0.5625 l 1,0,-1
EndSplineSet
EndChar

StartChar: W
Encoding: 87 87 58
Width: 995
VWidth: 921
Flags: W
LayerCount: 2
Fore
SplineSet
131.625 0.5625 m 1,0,-1
 131.625 197.887695312 l 1,1,-1
 65.7001953125 197.887695312 l 1,2,-1
 65.7001953125 461.362304688 l 1,3,-1
 0 461.362304688 l 1,4,-1
 0 658.6875 l 1,5,-1
 131.625 658.6875 l 1,6,-1
 131.625 461.362304688 l 1,7,-1
 197.325195312 461.362304688 l 1,8,-1
 197.325195312 329.512695312 l 1,9,-1
 263.25 329.512695312 l 1,10,-1
 263.25 461.362304688 l 1,11,-1
 328.950195312 461.362304688 l 1,12,-1
 328.950195312 658.6875 l 1,13,-1
 460.799804688 658.6875 l 1,14,-1
 460.799804688 395.4375 l 1,15,-1
 526.5 395.4375 l 1,16,-1
 526.5 197.887695312 l 1,17,-1
 592.424804688 197.887695312 l 1,18,-1
 592.424804688 395.4375 l 1,19,-1
 658.125 395.4375 l 1,20,-1
 658.125 527.0625 l 1,21,-1
 724.049804688 527.0625 l 1,22,-1
 724.049804688 658.6875 l 1,23,-1
 855.674804688 658.6875 l 1,24,-1
 855.674804688 527.0625 l 1,25,-1
 789.75 527.0625 l 1,26,-1
 789.75 395.4375 l 1,27,-1
 724.049804688 395.4375 l 1,28,-1
 724.049804688 263.8125 l 1,29,-1
 658.125 263.8125 l 1,30,-1
 658.125 66.2626953125 l 1,31,-1
 592.424804688 66.2626953125 l 1,32,-1
 592.424804688 0.5625 l 1,33,-1
 460.799804688 0.5625 l 1,34,-1
 460.799804688 197.887695312 l 1,35,-1
 394.875 197.887695312 l 1,36,-1
 394.875 329.512695312 l 1,37,-1
 328.950195312 329.512695312 l 1,38,-1
 328.950195312 132.1875 l 1,39,-1
 263.25 132.1875 l 1,40,-1
 263.25 0.5625 l 1,41,-1
 131.625 0.5625 l 1,0,-1
EndSplineSet
EndChar

StartChar: X
Encoding: 88 88 59
Width: 688
VWidth: 921
Flags: W
LayerCount: 2
Fore
SplineSet
0 0.5625 m 1,0,-1
 0 132.1875 l 1,1,-1
 65.7001953125 132.1875 l 1,2,-1
 65.7001953125 197.887695312 l 1,3,-1
 131.625 197.887695312 l 1,4,-1
 131.625 263.8125 l 1,5,-1
 197.325195312 263.8125 l 1,6,-1
 197.325195312 395.4375 l 1,7,-1
 131.625 395.4375 l 1,8,-1
 131.625 461.362304688 l 1,9,-1
 65.7001953125 461.362304688 l 1,10,-1
 65.7001953125 527.0625 l 1,11,-1
 0 527.0625 l 1,12,-1
 0 658.6875 l 1,13,-1
 131.625 658.6875 l 1,14,-1
 131.625 592.987304688 l 1,15,-1
 197.325195312 592.987304688 l 1,16,-1
 197.325195312 527.0625 l 1,17,-1
 263.25 527.0625 l 1,18,-1
 263.25 461.362304688 l 1,19,-1
 328.950195312 461.362304688 l 1,20,-1
 328.950195312 527.0625 l 1,21,-1
 394.875 527.0625 l 1,22,-1
 394.875 592.987304688 l 1,23,-1
 460.799804688 592.987304688 l 1,24,-1
 460.799804688 658.6875 l 1,25,-1
 592.424804688 658.6875 l 1,26,-1
 592.424804688 527.0625 l 1,27,-1
 526.5 527.0625 l 1,28,-1
 526.5 461.362304688 l 1,29,-1
 460.799804688 461.362304688 l 1,30,-1
 460.799804688 395.4375 l 1,31,-1
 394.875 395.4375 l 1,32,-1
 394.875 263.8125 l 1,33,-1
 460.799804688 263.8125 l 1,34,-1
 460.799804688 197.887695312 l 1,35,-1
 526.5 197.887695312 l 1,36,-1
 526.5 132.1875 l 1,37,-1
 592.424804688 132.1875 l 1,38,-1
 592.424804688 0.5625 l 1,39,-1
 460.799804688 0.5625 l 1,40,-1
 460.799804688 66.2626953125 l 1,41,-1
 394.875 66.2626953125 l 1,42,-1
 394.875 197.887695312 l 1,43,-1
 263.25 197.887695312 l 1,44,-1
 263.25 132.1875 l 1,45,-1
 197.325195312 132.1875 l 1,46,-1
 197.325195312 66.2626953125 l 1,47,-1
 131.625 66.2626953125 l 1,48,-1
 131.625 0.5625 l 1,49,-1
 0 0.5625 l 1,0,-1
EndSplineSet
EndChar

StartChar: Y
Encoding: 89 89 60
Width: 589
VWidth: 921
Flags: W
LayerCount: 2
Fore
SplineSet
129.375 0.5625 m 1,0,-1
 129.375 132.1875 l 1,1,-1
 195.075195312 132.1875 l 1,2,-1
 195.075195312 329.512695312 l 1,3,-1
 129.375 329.512695312 l 1,4,-1
 129.375 395.4375 l 1,5,-1
 63.4501953125 395.4375 l 1,6,-1
 63.4501953125 527.0625 l 1,7,-1
 -2.25 527.0625 l 1,8,-1
 -2.25 658.6875 l 1,9,-1
 129.375 658.6875 l 1,10,-1
 129.375 592.987304688 l 1,11,-1
 195.075195312 592.987304688 l 1,12,-1
 195.075195312 395.4375 l 1,13,-1
 326.700195312 395.4375 l 1,14,-1
 326.700195312 527.0625 l 1,15,-1
 392.625 527.0625 l 1,16,-1
 392.625 658.6875 l 1,17,-1
 524.25 658.6875 l 1,18,-1
 524.25 527.0625 l 1,19,-1
 458.549804688 527.0625 l 1,20,-1
 458.549804688 395.4375 l 1,21,-1
 392.625 395.4375 l 1,22,-1
 392.625 197.887695312 l 1,23,-1
 326.700195312 197.887695312 l 1,24,-1
 326.700195312 66.2626953125 l 1,25,-1
 261 66.2626953125 l 1,26,-1
 261 0.5625 l 1,27,-1
 129.375 0.5625 l 1,0,-1
EndSplineSet
EndChar

StartChar: Z
Encoding: 90 90 61
Width: 589
VWidth: 921
Flags: W
LayerCount: 2
Fore
SplineSet
-2.25 0.5625 m 1,0,-1
 -2.25 132.1875 l 1,1,-1
 63.4501953125 132.1875 l 1,2,-1
 63.4501953125 197.887695312 l 1,3,-1
 129.375 197.887695312 l 1,4,-1
 129.375 329.512695312 l 1,5,-1
 195.075195312 329.512695312 l 1,6,-1
 195.075195312 395.4375 l 1,7,-1
 261 395.4375 l 1,8,-1
 261 461.362304688 l 1,9,-1
 326.700195312 461.362304688 l 1,10,-1
 326.700195312 527.0625 l 1,11,-1
 -2.25 527.0625 l 1,12,-1
 -2.25 658.6875 l 1,13,-1
 524.25 658.6875 l 1,14,-1
 524.25 527.0625 l 1,15,-1
 392.625 527.0625 l 1,16,-1
 392.625 395.4375 l 1,17,-1
 326.700195312 395.4375 l 1,18,-1
 326.700195312 329.512695312 l 1,19,-1
 261 329.512695312 l 1,20,-1
 261 263.8125 l 1,21,-1
 195.075195312 263.8125 l 1,22,-1
 195.075195312 132.1875 l 1,23,-1
 524.25 132.1875 l 1,24,-1
 524.25 0.5625 l 1,25,-1
 -2.25 0.5625 l 1,0,-1
EndSplineSet
EndChar

StartChar: bracketleft
Encoding: 91 91 62
Width: 384
Flags: W
LayerCount: 2
Fore
SplineSet
0 -256 m 1,0,-1
 0 640 l 1,1,-1
 256 640 l 1,2,-1
 256 512 l 1,3,-1
 128 512 l 1,4,-1
 128 -128 l 1,5,-1
 256 -128 l 1,6,-1
 256 -256 l 1,7,-1
 0 -256 l 1,0,-1
EndSplineSet
EndChar

StartChar: backslash
Encoding: 92 92 63
Width: 512
Flags: W
LayerCount: 2
Fore
SplineSet
256 -64 m 1,0,-1
 256 64 l 1,1,-1
 192 64 l 1,2,-1
 192 256 l 1,3,-1
 128 256 l 1,4,-1
 128 384 l 1,5,-1
 64 384 l 1,6,-1
 64 512 l 1,7,-1
 0 512 l 1,8,-1
 0 640 l 1,9,-1
 128 640 l 1,10,-1
 128 512 l 1,11,-1
 192 512 l 1,12,-1
 192 384 l 1,13,-1
 256 384 l 1,14,-1
 256 192 l 1,15,-1
 320 192 l 1,16,-1
 320 64 l 1,17,-1
 384 64 l 1,18,-1
 384 -64 l 1,19,-1
 256 -64 l 1,0,-1
EndSplineSet
EndChar

StartChar: bracketright
Encoding: 93 93 64
Width: 384
Flags: W
LayerCount: 2
Fore
SplineSet
0 -256 m 1,0,-1
 0 -128 l 1,1,-1
 128 -128 l 1,2,-1
 128 512 l 1,3,-1
 0 512 l 1,4,-1
 0 640 l 1,5,-1
 256 640 l 1,6,-1
 256 -256 l 1,7,-1
 0 -256 l 1,0,-1
EndSplineSet
EndChar

StartChar: asciicircum
Encoding: 94 94 65
Width: 512
Flags: W
LayerCount: 2
Fore
SplineSet
0 512 m 1,0,-1
 0 576 l 1,1,-1
 64 576 l 1,2,-1
 64 640 l 1,3,-1
 128 640 l 1,4,-1
 128 704 l 1,5,-1
 256 704 l 1,6,-1
 256 640 l 1,7,-1
 320 640 l 1,8,-1
 320 576 l 1,9,-1
 384 576 l 1,10,-1
 384 512 l 1,11,-1
 256 512 l 1,12,-1
 256 576 l 1,13,-1
 128 576 l 1,14,-1
 128 512 l 1,15,-1
 0 512 l 1,0,-1
EndSplineSet
EndChar

StartChar: underscore
Encoding: 95 95 66
Width: 640
Flags: W
LayerCount: 2
Fore
SplineSet
0 -128 m 1,0,-1
 0 -64 l 1,1,-1
 576 -64 l 1,2,-1
 576 -128 l 1,3,-1
 0 -128 l 1,0,-1
EndSplineSet
EndChar

StartChar: grave
Encoding: 96 96 67
Width: 384
Flags: W
LayerCount: 2
Fore
SplineSet
64 512 m 1,0,-1
 64 640 l 1,1,-1
 0 640 l 1,2,-1
 0 704 l 1,3,-1
 128 704 l 1,4,-1
 128 640 l 1,5,-1
 192 640 l 1,6,-1
 192 512 l 1,7,-1
 64 512 l 1,0,-1
EndSplineSet
EndChar

StartChar: a
Encoding: 97 97 68
Width: 512
Flags: W
LayerCount: 2
Fore
SplineSet
256 128 m 1,0,-1
 256 320 l 1,1,-1
 192 320 l 1,2,-1
 192 256 l 1,3,-1
 128 256 l 1,4,-1
 128 128 l 1,5,-1
 256 128 l 1,0,-1
64 0 m 1,6,-1
 64 64 l 1,7,-1
 0 64 l 1,8,-1
 0 320 l 1,9,-1
 64 320 l 1,10,-1
 64 384 l 1,11,-1
 128 384 l 1,12,-1
 128 448 l 1,13,-1
 320 448 l 1,14,-1
 320 384 l 1,15,-1
 384 384 l 1,16,-1
 384 0 l 1,17,-1
 64 0 l 1,6,-1
EndSplineSet
EndChar

StartChar: b
Encoding: 98 98 69
Width: 448
Flags: W
LayerCount: 2
Fore
SplineSet
256 128 m 1,0,-1
 256 320 l 1,1,-1
 128 320 l 1,2,-1
 128 128 l 1,3,-1
 256 128 l 1,0,-1
0 0 m 1,4,-1
 0 640 l 1,5,-1
 128 640 l 1,6,-1
 128 448 l 1,7,-1
 320 448 l 1,8,-1
 320 384 l 1,9,-1
 384 384 l 1,10,-1
 384 128 l 1,11,-1
 320 128 l 1,12,-1
 320 64 l 1,13,-1
 256 64 l 1,14,-1
 256 0 l 1,15,-1
 0 0 l 1,4,-1
EndSplineSet
EndChar

StartChar: c
Encoding: 99 99 70
Width: 512
Flags: W
LayerCount: 2
Fore
SplineSet
64 0 m 1,0,-1
 64 64 l 1,1,-1
 0 64 l 1,2,-1
 0 320 l 1,3,-1
 64 320 l 1,4,-1
 64 384 l 1,5,-1
 128 384 l 1,6,-1
 128 448 l 1,7,-1
 320 448 l 1,8,-1
 320 384 l 1,9,-1
 384 384 l 1,10,-1
 384 256 l 1,11,-1
 320 256 l 1,12,-1
 320 320 l 1,13,-1
 192 320 l 1,14,-1
 192 256 l 1,15,-1
 128 256 l 1,16,-1
 128 128 l 1,17,-1
 320 128 l 1,18,-1
 320 192 l 1,19,-1
 384 192 l 1,20,-1
 384 64 l 1,21,-1
 320 64 l 1,22,-1
 320 0 l 1,23,-1
 64 0 l 1,0,-1
EndSplineSet
EndChar

StartChar: d
Encoding: 100 100 71
Width: 512
Flags: W
LayerCount: 2
Fore
SplineSet
320 128 m 1,0,-1
 320 320 l 1,1,-1
 128 320 l 1,2,-1
 128 128 l 1,3,-1
 320 128 l 1,0,-1
128 0 m 1,4,-1
 128 64 l 1,5,-1
 0 64 l 1,6,-1
 0 320 l 1,7,-1
 64 320 l 1,8,-1
 64 384 l 1,9,-1
 128 384 l 1,10,-1
 128 448 l 1,11,-1
 320 448 l 1,12,-1
 320 640 l 1,13,-1
 448 640 l 1,14,-1
 448 0 l 1,15,-1
 128 0 l 1,4,-1
EndSplineSet
EndChar

StartChar: e
Encoding: 101 101 72
Width: 512
Flags: W
LayerCount: 2
Fore
SplineSet
192 192 m 1,0,-1
 192 256 l 1,1,-1
 256 256 l 1,2,-1
 256 320 l 1,3,-1
 128 320 l 1,4,-1
 128 192 l 1,5,-1
 192 192 l 1,0,-1
64 0 m 1,6,-1
 64 64 l 1,7,-1
 0 64 l 1,8,-1
 0 320 l 1,9,-1
 64 320 l 1,10,-1
 64 384 l 1,11,-1
 128 384 l 1,12,-1
 128 448 l 1,13,-1
 320 448 l 1,14,-1
 320 384 l 1,15,-1
 384 384 l 1,16,-1
 384 192 l 1,17,-1
 256 192 l 1,18,-1
 256 128 l 1,19,-1
 384 128 l 1,20,-1
 384 64 l 1,21,-1
 320 64 l 1,22,-1
 320 0 l 1,23,-1
 64 0 l 1,6,-1
EndSplineSet
EndChar

StartChar: f
Encoding: 102 102 73
Width: 576
Flags: W
LayerCount: 2
Fore
SplineSet
128 -64 m 1,0,-1
 128 320 l 1,1,-1
 0 320 l 1,2,-1
 0 448 l 1,3,-1
 128 448 l 1,4,-1
 128 576 l 1,5,-1
 192 576 l 1,6,-1
 192 640 l 1,7,-1
 384 640 l 1,8,-1
 384 512 l 1,9,-1
 256 512 l 1,10,-1
 256 448 l 1,11,-1
 384 448 l 1,12,-1
 384 320 l 1,13,-1
 256 320 l 1,14,-1
 256 -64 l 1,15,-1
 128 -64 l 1,0,-1
EndSplineSet
EndChar

StartChar: g
Encoding: 103 103 74
Width: 512
Flags: W
LayerCount: 2
Fore
SplineSet
192 128 m 1,0,-1
 192 192 l 1,1,-1
 256 192 l 1,2,-1
 256 320 l 1,3,-1
 128 320 l 1,4,-1
 128 128 l 1,5,-1
 192 128 l 1,0,-1
0 -256 m 1,6,-1
 0 -128 l 1,7,-1
 192 -128 l 1,8,-1
 192 -64 l 1,9,-1
 256 -64 l 1,10,-1
 256 0 l 1,11,-1
 64 0 l 1,12,-1
 64 64 l 1,13,-1
 0 64 l 1,14,-1
 0 320 l 1,15,-1
 64 320 l 1,16,-1
 64 384 l 1,17,-1
 128 384 l 1,18,-1
 128 448 l 1,19,-1
 320 448 l 1,20,-1
 320 384 l 1,21,-1
 384 384 l 1,22,-1
 384 -128 l 1,23,-1
 320 -128 l 1,24,-1
 320 -192 l 1,25,-1
 256 -192 l 1,26,-1
 256 -256 l 1,27,-1
 0 -256 l 1,6,-1
EndSplineSet
EndChar

StartChar: h
Encoding: 104 104 75
Width: 512
Flags: W
LayerCount: 2
Fore
SplineSet
64 0 m 1,0,-1
 64 640 l 1,1,-1
 192 640 l 1,2,-1
 192 448 l 1,3,-1
 384 448 l 1,4,-1
 384 384 l 1,5,-1
 448 384 l 1,6,-1
 448 0 l 1,7,-1
 320 0 l 1,8,-1
 320 320 l 1,9,-1
 256 320 l 1,10,-1
 256 256 l 1,11,-1
 192 256 l 1,12,-1
 192 0 l 1,13,-1
 64 0 l 1,0,-1
EndSplineSet
EndChar

StartChar: i
Encoding: 105 105 76
Width: 384
Flags: W
LayerCount: 2
Fore
SplineSet
64 0 m 1,0,-1
 64 448 l 1,1,-1
 192 448 l 1,2,-1
 192 0 l 1,3,-1
 64 0 l 1,0,-1
64 512 m 1,4,-1
 64 640 l 1,5,-1
 192 640 l 1,6,-1
 192 512 l 1,7,-1
 64 512 l 1,4,-1
EndSplineSet
EndChar

StartChar: j
Encoding: 106 106 77
Width: 448
Flags: W
LayerCount: 2
Fore
SplineSet
0 -256 m 1,0,-1
 0 -128 l 1,1,-1
 -64 -128 l 1,2,-1
 -64 0 l 1,3,-1
 64 0 l 1,4,-1
 64 -128 l 1,5,-1
 128 -128 l 1,6,-1
 128 448 l 1,7,-1
 256 448 l 1,8,-1
 256 -192 l 1,9,-1
 192 -192 l 1,10,-1
 192 -256 l 1,11,-1
 0 -256 l 1,0,-1
128 512 m 1,12,-1
 128 640 l 1,13,-1
 256 640 l 1,14,-1
 256 512 l 1,15,-1
 128 512 l 1,12,-1
EndSplineSet
EndChar

StartChar: k
Encoding: 107 107 78
Width: 512
Flags: W
LayerCount: 2
Fore
SplineSet
0 0 m 1,0,-1
 0 640 l 1,1,-1
 128 640 l 1,2,-1
 128 320 l 1,3,-1
 192 320 l 1,4,-1
 192 384 l 1,5,-1
 256 384 l 1,6,-1
 256 448 l 1,7,-1
 384 448 l 1,8,-1
 384 320 l 1,9,-1
 320 320 l 1,10,-1
 320 256 l 1,11,-1
 256 256 l 1,12,-1
 256 192 l 1,13,-1
 320 192 l 1,14,-1
 320 128 l 1,15,-1
 384 128 l 1,16,-1
 384 0 l 1,17,-1
 256 0 l 1,18,-1
 256 128 l 1,19,-1
 192 128 l 1,20,-1
 192 192 l 1,21,-1
 128 192 l 1,22,-1
 128 0 l 1,23,-1
 0 0 l 1,0,-1
EndSplineSet
EndChar

StartChar: l
Encoding: 108 108 79
Width: 384
Flags: W
LayerCount: 2
Fore
SplineSet
64 0 m 1,0,-1
 64 640 l 1,1,-1
 192 640 l 1,2,-1
 192 0 l 1,3,-1
 64 0 l 1,0,-1
EndSplineSet
EndChar

StartChar: m
Encoding: 109 109 80
Width: 640
Flags: W
LayerCount: 2
Fore
SplineSet
64 0 m 1,0,-1
 64 448 l 1,1,-1
 192 448 l 1,2,-1
 192 384 l 1,3,-1
 256 384 l 1,4,-1
 256 448 l 1,5,-1
 576 448 l 1,6,-1
 576 0 l 1,7,-1
 448 0 l 1,8,-1
 448 320 l 1,9,-1
 384 320 l 1,10,-1
 384 0 l 1,11,-1
 256 0 l 1,12,-1
 256 256 l 1,13,-1
 192 256 l 1,14,-1
 192 0 l 1,15,-1
 64 0 l 1,0,-1
EndSplineSet
EndChar

StartChar: n
Encoding: 110 110 81
Width: 512
Flags: W
LayerCount: 2
Fore
SplineSet
0 0 m 1,0,-1
 0 448 l 1,1,-1
 128 448 l 1,2,-1
 128 384 l 1,3,-1
 192 384 l 1,4,-1
 192 448 l 1,5,-1
 320 448 l 1,6,-1
 320 384 l 1,7,-1
 384 384 l 1,8,-1
 384 0 l 1,9,-1
 256 0 l 1,10,-1
 256 320 l 1,11,-1
 192 320 l 1,12,-1
 192 256 l 1,13,-1
 128 256 l 1,14,-1
 128 0 l 1,15,-1
 0 0 l 1,0,-1
EndSplineSet
EndChar

StartChar: o
Encoding: 111 111 82
Width: 512
Flags: W
LayerCount: 2
Fore
SplineSet
256 128 m 1,0,-1
 256 320 l 1,1,-1
 128 320 l 1,2,-1
 128 128 l 1,3,-1
 256 128 l 1,0,-1
64 0 m 1,4,-1
 64 64 l 1,5,-1
 0 64 l 1,6,-1
 0 320 l 1,7,-1
 64 320 l 1,8,-1
 64 384 l 1,9,-1
 128 384 l 1,10,-1
 128 448 l 1,11,-1
 320 448 l 1,12,-1
 320 384 l 1,13,-1
 384 384 l 1,14,-1
 384 128 l 1,15,-1
 320 128 l 1,16,-1
 320 64 l 1,17,-1
 256 64 l 1,18,-1
 256 0 l 1,19,-1
 64 0 l 1,4,-1
EndSplineSet
EndChar

StartChar: p
Encoding: 112 112 83
Width: 512
Flags: W
LayerCount: 2
Fore
SplineSet
256 128 m 1,0,-1
 256 320 l 1,1,-1
 128 320 l 1,2,-1
 128 128 l 1,3,-1
 256 128 l 1,0,-1
0 -256 m 1,4,-1
 0 448 l 1,5,-1
 320 448 l 1,6,-1
 320 384 l 1,7,-1
 384 384 l 1,8,-1
 384 64 l 1,9,-1
 320 64 l 1,10,-1
 320 0 l 1,11,-1
 128 0 l 1,12,-1
 128 -256 l 1,13,-1
 0 -256 l 1,4,-1
EndSplineSet
EndChar

StartChar: q
Encoding: 113 113 84
Width: 512
Flags: W
LayerCount: 2
Fore
SplineSet
256 128 m 1,0,-1
 256 320 l 1,1,-1
 192 320 l 1,2,-1
 192 256 l 1,3,-1
 128 256 l 1,4,-1
 128 128 l 1,5,-1
 256 128 l 1,0,-1
256 -256 m 1,6,-1
 256 0 l 1,7,-1
 64 0 l 1,8,-1
 64 64 l 1,9,-1
 0 64 l 1,10,-1
 0 320 l 1,11,-1
 64 320 l 1,12,-1
 64 384 l 1,13,-1
 128 384 l 1,14,-1
 128 448 l 1,15,-1
 384 448 l 1,16,-1
 384 -256 l 1,17,-1
 256 -256 l 1,6,-1
EndSplineSet
EndChar

StartChar: r
Encoding: 114 114 85
Width: 512
Flags: W
LayerCount: 2
Fore
SplineSet
0 0 m 1,0,-1
 0 448 l 1,1,-1
 384 448 l 1,2,-1
 384 256 l 1,3,-1
 256 256 l 1,4,-1
 256 320 l 1,5,-1
 192 320 l 1,6,-1
 192 256 l 1,7,-1
 128 256 l 1,8,-1
 128 0 l 1,9,-1
 0 0 l 1,0,-1
EndSplineSet
EndChar

StartChar: s
Encoding: 115 115 86
Width: 448
Flags: W
LayerCount: 2
Fore
SplineSet
0 0 m 1,0,-1
 0 128 l 1,1,-1
 192 128 l 1,2,-1
 192 192 l 1,3,-1
 64 192 l 1,4,-1
 64 256 l 1,5,-1
 0 256 l 1,6,-1
 0 384 l 1,7,-1
 64 384 l 1,8,-1
 64 448 l 1,9,-1
 320 448 l 1,10,-1
 320 320 l 1,11,-1
 128 320 l 1,12,-1
 128 256 l 1,13,-1
 256 256 l 1,14,-1
 256 192 l 1,15,-1
 320 192 l 1,16,-1
 320 64 l 1,17,-1
 256 64 l 1,18,-1
 256 0 l 1,19,-1
 0 0 l 1,0,-1
EndSplineSet
EndChar

StartChar: t
Encoding: 116 116 87
Width: 512
Flags: W
LayerCount: 2
Fore
SplineSet
128 0 m 1,0,-1
 128 320 l 1,1,-1
 0 320 l 1,2,-1
 0 448 l 1,3,-1
 128 448 l 1,4,-1
 128 576 l 1,5,-1
 256 576 l 1,6,-1
 256 448 l 1,7,-1
 384 448 l 1,8,-1
 384 320 l 1,9,-1
 256 320 l 1,10,-1
 256 0 l 1,11,-1
 128 0 l 1,0,-1
EndSplineSet
EndChar

StartChar: u
Encoding: 117 117 88
Width: 512
Flags: W
LayerCount: 2
Fore
SplineSet
64 0 m 1,0,-1
 64 64 l 1,1,-1
 0 64 l 1,2,-1
 0 448 l 1,3,-1
 128 448 l 1,4,-1
 128 128 l 1,5,-1
 256 128 l 1,6,-1
 256 448 l 1,7,-1
 384 448 l 1,8,-1
 384 0 l 1,9,-1
 64 0 l 1,0,-1
EndSplineSet
EndChar

StartChar: v
Encoding: 118 118 89
Width: 512
Flags: W
LayerCount: 2
Fore
SplineSet
128 0 m 1,0,-1
 128 128 l 1,1,-1
 64 128 l 1,2,-1
 64 320 l 1,3,-1
 0 320 l 1,4,-1
 0 448 l 1,5,-1
 128 448 l 1,6,-1
 128 320 l 1,7,-1
 256 320 l 1,8,-1
 256 448 l 1,9,-1
 384 448 l 1,10,-1
 384 320 l 1,11,-1
 320 320 l 1,12,-1
 320 128 l 1,13,-1
 256 128 l 1,14,-1
 256 0 l 1,15,-1
 128 0 l 1,0,-1
EndSplineSet
EndChar

StartChar: w
Encoding: 119 119 90
Width: 640
Flags: W
LayerCount: 2
Fore
SplineSet
64 0 m 1,0,-1
 64 128 l 1,1,-1
 0 128 l 1,2,-1
 0 448 l 1,3,-1
 128 448 l 1,4,-1
 128 256 l 1,5,-1
 192 256 l 1,6,-1
 192 448 l 1,7,-1
 320 448 l 1,8,-1
 320 192 l 1,9,-1
 384 192 l 1,10,-1
 384 448 l 1,11,-1
 512 448 l 1,12,-1
 512 256 l 1,13,-1
 448 256 l 1,14,-1
 448 64 l 1,15,-1
 384 64 l 1,16,-1
 384 0 l 1,17,-1
 320 0 l 1,18,-1
 320 64 l 1,19,-1
 256 64 l 1,20,-1
 256 192 l 1,21,-1
 192 192 l 1,22,-1
 192 64 l 1,23,-1
 128 64 l 1,24,-1
 128 0 l 1,25,-1
 64 0 l 1,0,-1
EndSplineSet
EndChar

StartChar: x
Encoding: 120 120 91
Width: 512
Flags: W
LayerCount: 2
Fore
SplineSet
0 0 m 1,0,-1
 0 128 l 1,1,-1
 64 128 l 1,2,-1
 64 192 l 1,3,-1
 128 192 l 1,4,-1
 128 256 l 1,5,-1
 64 256 l 1,6,-1
 64 320 l 1,7,-1
 0 320 l 1,8,-1
 0 448 l 1,9,-1
 128 448 l 1,10,-1
 128 384 l 1,11,-1
 192 384 l 1,12,-1
 192 320 l 1,13,-1
 256 320 l 1,14,-1
 256 384 l 1,15,-1
 320 384 l 1,16,-1
 320 448 l 1,17,-1
 448 448 l 1,18,-1
 448 320 l 1,19,-1
 384 320 l 1,20,-1
 384 256 l 1,21,-1
 320 256 l 1,22,-1
 320 192 l 1,23,-1
 384 192 l 1,24,-1
 384 128 l 1,25,-1
 448 128 l 1,26,-1
 448 0 l 1,27,-1
 320 0 l 1,28,-1
 320 64 l 1,29,-1
 256 64 l 1,30,-1
 256 128 l 1,31,-1
 192 128 l 1,32,-1
 192 64 l 1,33,-1
 128 64 l 1,34,-1
 128 0 l 1,35,-1
 0 0 l 1,0,-1
EndSplineSet
EndChar

StartChar: y
Encoding: 121 121 92
Width: 640
Flags: W
LayerCount: 2
Fore
SplineSet
64 -256 m 1,0,-1
 64 -64 l 1,1,-1
 128 -64 l 1,2,-1
 128 192 l 1,3,-1
 64 192 l 1,4,-1
 64 320 l 1,5,-1
 0 320 l 1,6,-1
 0 448 l 1,7,-1
 128 448 l 1,8,-1
 128 320 l 1,9,-1
 192 320 l 1,10,-1
 192 192 l 1,11,-1
 256 192 l 1,12,-1
 256 384 l 1,13,-1
 320 384 l 1,14,-1
 320 448 l 1,15,-1
 448 448 l 1,16,-1
 448 320 l 1,17,-1
 384 320 l 1,18,-1
 384 192 l 1,19,-1
 320 192 l 1,20,-1
 320 0 l 1,21,-1
 256 0 l 1,22,-1
 256 -128 l 1,23,-1
 192 -128 l 1,24,-1
 192 -256 l 1,25,-1
 64 -256 l 1,0,-1
EndSplineSet
EndChar

StartChar: z
Encoding: 122 122 93
Width: 448
Flags: W
LayerCount: 2
Fore
SplineSet
0 0 m 1,0,-1
 0 128 l 1,1,-1
 64 128 l 1,2,-1
 64 192 l 1,3,-1
 128 192 l 1,4,-1
 128 256 l 1,5,-1
 192 256 l 1,6,-1
 192 320 l 1,7,-1
 0 320 l 1,8,-1
 0 448 l 1,9,-1
 384 448 l 1,10,-1
 384 320 l 1,11,-1
 320 320 l 1,12,-1
 320 256 l 1,13,-1
 256 256 l 1,14,-1
 256 192 l 1,15,-1
 192 192 l 1,16,-1
 192 128 l 1,17,-1
 384 128 l 1,18,-1
 384 0 l 1,19,-1
 0 0 l 1,0,-1
EndSplineSet
EndChar

StartChar: braceleft
Encoding: 123 123 94
Width: 448
Flags: W
LayerCount: 2
Fore
SplineSet
128 -256 m 1,0,-1
 128 -128 l 1,1,-1
 64 -128 l 1,2,-1
 64 128 l 1,3,-1
 0 128 l 1,4,-1
 0 256 l 1,5,-1
 64 256 l 1,6,-1
 64 576 l 1,7,-1
 128 576 l 1,8,-1
 128 640 l 1,9,-1
 320 640 l 1,10,-1
 320 512 l 1,11,-1
 192 512 l 1,12,-1
 192 256 l 1,13,-1
 128 256 l 1,14,-1
 128 192 l 1,15,-1
 192 192 l 1,16,-1
 192 -128 l 1,17,-1
 320 -128 l 1,18,-1
 320 -256 l 1,19,-1
 128 -256 l 1,0,-1
EndSplineSet
EndChar

StartChar: bar
Encoding: 124 124 95
Width: 320
Flags: W
LayerCount: 2
Fore
SplineSet
0 -256 m 1,0,-1
 0 640 l 1,1,-1
 128 640 l 1,2,-1
 128 -256 l 1,3,-1
 0 -256 l 1,0,-1
EndSplineSet
EndChar

StartChar: braceright
Encoding: 125 125 96
Width: 448
Flags: W
LayerCount: 2
Fore
SplineSet
0 -256 m 1,0,-1
 0 -128 l 1,1,-1
 128 -128 l 1,2,-1
 128 192 l 1,3,-1
 192 192 l 1,4,-1
 192 256 l 1,5,-1
 128 256 l 1,6,-1
 128 512 l 1,7,-1
 0 512 l 1,8,-1
 0 640 l 1,9,-1
 192 640 l 1,10,-1
 192 576 l 1,11,-1
 256 576 l 1,12,-1
 256 256 l 1,13,-1
 320 256 l 1,14,-1
 320 192 l 1,15,-1
 256 192 l 1,16,-1
 256 -128 l 1,17,-1
 192 -128 l 1,18,-1
 192 -256 l 1,19,-1
 0 -256 l 1,0,-1
EndSplineSet
EndChar

StartChar: asciitilde
Encoding: 126 126 97
Width: 576
Flags: W
LayerCount: 2
Fore
SplineSet
0 192 m 1,0,-1
 0 320 l 1,1,-1
 64 320 l 1,2,-1
 64 384 l 1,3,-1
 256 384 l 1,4,-1
 256 256 l 1,5,-1
 192 256 l 1,6,-1
 192 320 l 1,7,-1
 128 320 l 1,8,-1
 128 256 l 1,9,-1
 64 256 l 1,10,-1
 64 192 l 1,11,-1
 0 192 l 1,0,-1
256 192 m 1,12,-1
 256 256 l 1,13,-1
 320 256 l 1,14,-1
 320 320 l 1,15,-1
 384 320 l 1,16,-1
 384 384 l 1,17,-1
 448 384 l 1,18,-1
 448 256 l 1,19,-1
 384 256 l 1,20,-1
 384 192 l 1,21,-1
 256 192 l 1,12,-1
EndSplineSet
EndChar

StartChar: quoteleft
Encoding: 8216 8216 98
Width: 448
Flags: W
LayerCount: 2
Fore
SplineSet
128 384 m 1,0,-1
 128 640 l 1,1,-1
 256 640 l 1,2,-1
 256 384 l 1,3,-1
 128 384 l 1,0,-1
EndSplineSet
EndChar

StartChar: quoteright
Encoding: 8217 8217 99
Width: 448
Flags: W
LayerCount: 2
Fore
SplineSet
128 384 m 1,0,-1
 128 640 l 1,1,-1
 256 640 l 1,2,-1
 256 384 l 1,3,-1
 128 384 l 1,0,-1
EndSplineSet
EndChar

StartChar: quotedblleft
Encoding: 8220 8220 100
Width: 640
Flags: W
LayerCount: 2
Fore
SplineSet
128 384 m 1,0,-1
 128 640 l 1,1,-1
 256 640 l 1,2,-1
 256 384 l 1,3,-1
 128 384 l 1,0,-1
320 384 m 1,4,-1
 320 640 l 1,5,-1
 448 640 l 1,6,-1
 448 384 l 1,7,-1
 320 384 l 1,4,-1
EndSplineSet
EndChar

StartChar: quotedblright
Encoding: 8221 8221 101
Width: 640
Flags: W
LayerCount: 2
Fore
SplineSet
128 384 m 1,0,-1
 128 640 l 1,1,-1
 256 640 l 1,2,-1
 256 384 l 1,3,-1
 128 384 l 1,0,-1
320 384 m 1,4,-1
 320 640 l 1,5,-1
 448 640 l 1,6,-1
 448 384 l 1,7,-1
 320 384 l 1,4,-1
EndSplineSet
EndChar
